<?xml version="1.0" standalone="no"?><!DOCTYPE svg PUBLIC "-//W3C//DTD SVG 1.1//EN" "http://www.w3.org/Graphics/SVG/1.1/DTD/svg11.dtd"><svg class="icon" width="200px" height="192.84px" viewBox="0 0 1062 1024" version="1.1" xmlns="http://www.w3.org/2000/svg"><path d="M108.8 281.6S102.4 870.4 32 896h409.6c-70.4-102.4-96-614.4-96-614.4H108.8z m64-160l19.2-19.2c12.8-6.4 32-6.4 51.2-6.4h25.6c12.8 0 25.6-6.4 32-19.2 6.4-6.4 12.8-12.8 12.8-25.6s0-19.2-6.4-25.6C300.8 12.8 294.4 6.4 281.6 0c6.4 12.8 6.4 25.6 12.8 38.4v12.8h-6.4c-6.4 0-12.8 6.4-19.2 6.4h-25.6c-19.2 0-44.8 6.4-57.6 19.2-12.8 6.4-25.6 19.2-25.6 32-6.4 12.8-6.4 32 0 44.8 0-12.8 6.4-25.6 12.8-32z m294.4 12.8c-6.4-19.2-12.8-32-25.6-51.2 6.4 19.2 6.4 38.4 12.8 57.6v19.2c-6.4 0-6.4 0-12.8 6.4H390.4l-19.2-12.8c-25.6-12.8-57.6-12.8-83.2 0-19.2 12.8-32 25.6-38.4 38.4-12.8 19.2-12.8 38.4-12.8 57.6 0-19.2 6.4-32 19.2-51.2 6.4-6.4 19.2-12.8 32-12.8 25.6 0 51.2 0 70.4 6.4l19.2 6.4h25.6c12.8 6.4 32 6.4 44.8 0 12.8-6.4 19.2-19.2 19.2-25.6 6.4-12.8 6.4-25.6 0-38.4z" fill="#2c2c2c" /><path d="M454.4 556.8s-6.4 313.6-44.8 326.4h249.6c-44.8-64-57.6-326.4-57.6-326.4H454.4z m38.4-83.2c0-6.4 6.4-6.4 12.8-12.8s12.8-12.8 25.6-12.8H550.4c6.4-6.4 12.8-6.4 19.2-12.8 6.4-6.4 6.4-12.8 6.4-19.2 0-6.4 0-12.8-6.4-12.8-12.8-12.8-19.2-19.2-25.6-19.2 6.4 6.4 6.4 12.8 6.4 19.2v6.4c-6.4 0-6.4 6.4-12.8 6.4h-6.4c-12.8 6.4-25.6 12.8-38.4 25.6 0 6.4-6.4 12.8-6.4 25.6 0 6.4 0 19.2 6.4 25.6v-19.2z m179.2-6.4c-6.4-12.8-6.4-19.2-12.8-25.6 0 12.8 6.4 19.2 6.4 32v12.8l-6.4 6.4h-32l-12.8-12.8c-19.2-6.4-32-6.4-51.2 0-12.8 6.4-19.2 12.8-25.6 19.2-6.4 12.8-6.4 25.6-6.4 38.4 0-6.4 6.4-19.2 12.8-25.6 6.4-6.4 12.8-6.4 19.2-12.8 12.8 0 32 0 44.8 6.4l12.8 6.4h12.8c6.4 0 19.2 0 25.6-6.4 6.4-6.4 12.8-6.4 12.8-12.8 6.4-6.4 6.4-19.2 0-25.6z" fill="#2c2c2c" /><path d="M0 864h665.6v44.8H0v-44.8z" fill="#2c2c2c" /><path d="M1043.2 761.6l-19.2-6.4c-12.8-6.4-25.6-12.8-32-25.6-6.4-12.8-6.4-25.6 0-38.4l6.4-12.8c6.4-12.8 0-25.6-6.4-32l-12.8-12.8c-6.4-6.4-25.6-12.8-32-6.4l-12.8 6.4c-12.8 6.4-25.6 6.4-38.4 0-12.8-6.4-25.6-12.8-25.6-25.6l-6.4-12.8c-6.4-12.8-19.2-19.2-32-19.2h-25.6c-12.8 0-25.6 6.4-25.6 19.2l-6.4 12.8c-6.4 12.8-12.8 25.6-25.6 25.6-12.8 6.4-25.6 6.4-38.4 0l-12.8-6.4c-12.8-6.4-25.6 0-32 6.4l-12.8 12.8c-6.4 6.4-12.8 19.2-6.4 32l6.4 12.8c6.4 12.8 6.4 25.6 0 38.4-6.4 12.8-19.2 19.2-32 25.6l-19.2 12.8c-12.8 6.4-19.2 12.8-19.2 25.6v19.2c0 12.8 6.4 25.6 19.2 25.6l12.8 6.4c12.8 6.4 25.6 12.8 32 25.6 6.4 12.8 6.4 25.6 0 38.4l-6.4 12.8c-6.4 12.8 0 25.6 6.4 32l12.8 12.8c6.4 6.4 25.6 12.8 32 6.4l12.8-6.4c12.8-6.4 25.6-6.4 38.4 0 12.8 6.4 25.6 12.8 25.6 25.6l6.4 12.8c6.4 12.8 12.8 19.2 25.6 19.2h32c12.8 0 25.6-6.4 25.6-19.2l6.4-12.8c6.4-12.8 12.8-25.6 25.6-25.6 12.8-6.4 25.6-6.4 38.4 0l12.8 6.4c12.8 6.4 25.6 0 32-6.4l12.8-12.8c6.4-6.4 12.8-19.2 6.4-32l-6.4-12.8c-6.4-12.8-6.4-25.6 0-38.4 6.4-12.8 19.2-19.2 32-25.6l12.8-6.4c12.8-6.4 19.2-12.8 12.8-25.6v-19.2c12.8-12.8 6.4-25.6 0-32z m-128 51.2c-12.8 44.8-57.6 76.8-102.4 64-44.8-6.4-76.8-51.2-70.4-96 6.4-32 38.4-57.6 70.4-64 44.8-12.8 89.6 19.2 102.4 64v32z" fill="#2c2c2c" /></svg>