<svg xmlns="http://www.w3.org/2000/svg" viewBox="0 0 16.42 16"><defs><style>.cls-1{fill:#fff;}</style></defs><g id="图层_2" data-name="图层 2"><g id="图层_1-2" data-name="图层 1"><g id="图层_2-2" data-name="图层 2"><g id="图层_1-2-2" data-name="图层 1-2"><path class="cls-1" d="M1.7,4.4S1.6,13.6.5,14H6.9C5.8,12.4,5.4,4.4,5.4,4.4Zm1-2.5L3,1.6a2,2,0,0,1,.8-.1h.4a.55.55,0,0,0,.5-.3A.52.52,0,0,0,4.9.8c0-.2,0-.3-.1-.4A.78.78,0,0,0,4.4,0c.1.2.1.4.2.6V.8H4.5c-.1,0-.2.1-.3.1H3.8a1.4,1.4,0,0,0-.9.3.66.66,0,0,0-.4.5.85.85,0,0,0,0,.7A.76.76,0,0,1,2.7,1.9Zm4.6.2a3,3,0,0,0-.4-.8c.1.3.1.6.2.9v.3c-.1,0-.1,0-.2.1H6.1l-.3-.2a1.48,1.48,0,0,0-1.3,0,1.7,1.7,0,0,0-.6.6,1.49,1.49,0,0,0-.2.9A1.33,1.33,0,0,1,4,3.1a.76.76,0,0,1,.5-.2A3.75,3.75,0,0,1,5.6,3l.3.1h.4a.85.85,0,0,0,.7,0,.54.54,0,0,0,.3-.4.64.64,0,0,0,0-.6Z"/><path class="cls-1" d="M7.1,8.7s-.1,4.9-.7,5.1h3.9c-.7-1-.9-5.1-.9-5.1Zm.6-1.3c0-.1.1-.1.2-.2A.52.52,0,0,1,8.3,7h.3c.1-.1.2-.1.3-.2A.37.37,0,0,0,9,6.5c0-.1,0-.2-.1-.2-.2-.2-.3-.3-.4-.3a.37.37,0,0,1,.1.3v.1h0c-.1,0-.1.1-.2.1H8.3a2.09,2.09,0,0,0-.6.4c0,.1-.1.2-.1.4a.6.6,0,0,0,.1.4V7.4Zm2.8-.1c-.1-.2-.1-.3-.2-.4,0,.2.1.3.1.5v.2l-.1.1H9.8l-.2-.2a1.1,1.1,0,0,0-.8,0,1.38,1.38,0,0,0-.4.3,1.27,1.27,0,0,0-.1.6A.76.76,0,0,1,8.5,8c.1-.1.2-.1.3-.2a1.7,1.7,0,0,1,.7.1l.2.1h.2a.6.6,0,0,0,.4-.1c.1-.1.2-.1.2-.2a.3.3,0,0,0,0-.4Z"/><path class="cls-1" d="M0,13.5H10.4v.7H0Z"/><path class="cls-1" d="M16.3,11.9l-.3-.1a1,1,0,0,1-.5-.4.64.64,0,0,1,0-.6l.1-.2a.44.44,0,0,0-.1-.5l-.2-.2c-.1-.1-.4-.2-.5-.1l-.2.1a.64.64,0,0,1-.6,0c-.2-.1-.4-.2-.4-.4l-.1-.2A.55.55,0,0,0,13,9h-.4c-.2,0-.4.1-.4.3l-.1.2c-.1.2-.2.4-.4.4a.64.64,0,0,1-.6,0l-.2-.1a.44.44,0,0,0-.5.1l-.2.2a.44.44,0,0,0-.1.5l.1.2a.64.64,0,0,1,0,.6,1,1,0,0,1-.5.4l-.3.2c-.2.1-.3.2-.3.4v.3c0,.2.1.4.3.4l.2.1a1,1,0,0,1,.5.4.64.64,0,0,1,0,.6l-.1.2a.44.44,0,0,0,.1.5l.2.2c.1.1.4.2.5.1l.2-.1a.64.64,0,0,1,.6,0c.2.1.4.2.4.4l.1.2c.1.2.2.3.4.3H13c.2,0,.4-.1.4-.3l.1-.2c.1-.2.2-.4.4-.4a.64.64,0,0,1,.6,0l.2.1a.44.44,0,0,0,.5-.1l.2-.2a.44.44,0,0,0,.1-.5l-.1-.2a.64.64,0,0,1,0-.6,1,1,0,0,1,.5-.4l.2-.1c.2-.1.3-.2.2-.4v-.3a.33.33,0,0,0,0-.5Zm-2,.8a1.38,1.38,0,0,1-2.7-.5h0a1.41,1.41,0,0,1,1.1-1,1.35,1.35,0,0,1,1.6,1v.5Z"/></g></g></g></g></svg>