<svg viewBox="0 0 16.42 16" xmlns="http://www.w3.org/2000/svg"><g fill="#fff"><path d="m1.7 4.4s-.1 9.2-1.2 9.6h6.4c-1.1-1.6-1.5-9.6-1.5-9.6zm1-2.5.3-.3a2 2 0 0 1 .8-.1h.4a.55.55 0 0 0 .5-.3.52.52 0 0 0 .2-.4c0-.2 0-.3-.1-.4a.78.78 0 0 0 -.4-.4c.1.2.1.4.2.6v.2h-.1c-.1 0-.2.1-.3.1h-.4a1.4 1.4 0 0 0 -.9.3.66.66 0 0 0 -.4.5.85.85 0 0 0 0 .7.76.76 0 0 1 .2-.5zm4.6.2a3 3 0 0 0 -.4-.8c.1.3.1.6.2.9v.3c-.1 0-.1 0-.2.1h-.8l-.3-.2a1.48 1.48 0 0 0 -1.3 0 1.7 1.7 0 0 0 -.6.6 1.49 1.49 0 0 0 -.2.9 1.33 1.33 0 0 1 .3-.8.76.76 0 0 1 .5-.2 3.75 3.75 0 0 1 1.1.1l.3.1h.4a.85.85 0 0 0 .7 0 .54.54 0 0 0 .3-.4.64.64 0 0 0 0-.6z"/><path fill="#fff" d="m7.1 8.7s-.1 4.9-.7 5.1h3.9c-.7-1-.9-5.1-.9-5.1zm.6-1.3c0-.1.1-.1.2-.2a.52.52 0 0 1 .4-.2h.3c.1-.1.2-.1.3-.2a.37.37 0 0 0 .1-.3c0-.1 0-.2-.1-.2-.2-.2-.3-.3-.4-.3a.37.37 0 0 1 .1.3v.1c-.1 0-.1.1-.2.1h-.1a2.09 2.09 0 0 0 -.6.4c0 .1-.1.2-.1.4a.6.6 0 0 0 .1.4zm2.8-.1c-.1-.2-.1-.3-.2-.4 0 .2.1.3.1.5v.2l-.1.1h-.5l-.2-.2a1.1 1.1 0 0 0 -.8 0 1.38 1.38 0 0 0 -.4.3 1.27 1.27 0 0 0 -.1.6.76.76 0 0 1 .2-.4c.1-.1.2-.1.3-.2a1.7 1.7 0 0 1 .7.1l.2.1h.2a.6.6 0 0 0 .4-.1c.1-.1.2-.1.2-.2a.3.3 0 0 0 0-.4z"/><path fill="#fff" d="m0 13.5h10.4v.7h-10.4z"/><path fill="#fff" d="m16.3 11.9-.3-.1a1 1 0 0 1 -.5-.4.64.64 0 0 1 0-.6l.1-.2a.44.44 0 0 0 -.1-.5l-.2-.2c-.1-.1-.4-.2-.5-.1l-.2.1a.64.64 0 0 1 -.6 0c-.2-.1-.4-.2-.4-.4l-.1-.2a.55.55 0 0 0 -.5-.3h-.4c-.2 0-.4.1-.4.3l-.1.2c-.1.2-.2.4-.4.4a.64.64 0 0 1 -.6 0l-.2-.1a.44.44 0 0 0 -.5.1l-.2.2a.44.44 0 0 0 -.1.5l.1.2a.64.64 0 0 1 0 .6 1 1 0 0 1 -.5.4l-.3.2c-.2.1-.3.2-.3.4v.3c0 .2.1.4.3.4l.2.1a1 1 0 0 1 .5.4.64.64 0 0 1 0 .6l-.1.2a.44.44 0 0 0 .1.5l.2.2c.1.1.4.2.5.1l.2-.1a.64.64 0 0 1 .6 0c.2.1.4.2.4.4l.1.2c.1.2.2.3.4.3h.5c.2 0 .4-.1.4-.3l.1-.2c.1-.2.2-.4.4-.4a.64.64 0 0 1 .6 0l.2.1a.44.44 0 0 0 .5-.1l.2-.2a.44.44 0 0 0 .1-.5l-.1-.2a.64.64 0 0 1 0-.6 1 1 0 0 1 .5-.4l.2-.1c.2-.1.3-.2.2-.4v-.3a.33.33 0 0 0 0-.5zm-2 .8a1.38 1.38 0 0 1 -2.7-.5 1.41 1.41 0 0 1 1.1-1 1.35 1.35 0 0 1 1.6 1z"/></g></svg>