<svg xmlns="http://www.w3.org/2000/svg" viewBox="0 0 20 9"><defs><style>.cls-1{fill:#fff;}</style></defs><g id="图层_2" data-name="图层 2"><g id="图层_1-2" data-name="图层 1"><g id="图层_2-2" data-name="图层 2"><g id="图层_1-2-2" data-name="图层 1-2"><polygon class="cls-1" points="7 2 6 4 5 4 5 5 8 5 9 1 9 0 1 0 0 8 0 9 7 9 9 7 2 7 3 2 7 2"/><polygon class="cls-1" points="10 9 11 0 13 0 13 1 15 0 19 0 17 2 14 2 13 3 12 5 12 9 10 9"/><polygon class="cls-1" points="17 7 15 7 14 9 19 9 20 3 20 1 18 3 18 5 17 7"/></g></g></g></g></svg>