<svg xmlns="http://www.w3.org/2000/svg" viewBox="0 0 17 17"><defs><style>.cls-1{fill:#fff;}</style></defs><g id="图层_2" data-name="图层 2"><g id="图层_1-2" data-name="图层 1"><g id="图层_2-2" data-name="图层 2"><g id="图层_1-2-2" data-name="图层 1-2"><path class="cls-1" d="M7,8.6a1.5,1.5,0,1,0,3,0A1.63,1.63,0,0,0,8.5,7h0A1.63,1.63,0,0,0,7,8.6Zm1.5-2a1.69,1.69,0,0,1,1,.3l2.6-4.4a7.13,7.13,0,0,0-7.2,0L7.4,6.9c.4-.2.7-.4,1.1-.3Zm-2,2H1.4A7,7,0,0,0,5,14.7l2.5-4.3a2.23,2.23,0,0,1-1-1.8Zm4.1,0a2.23,2.23,0,0,1-1,1.8L12,14.7a7,7,0,0,0,3.6-6.1Z"/><path class="cls-1" d="M8.5,0A8.5,8.5,0,1,0,17,8.5,8.49,8.49,0,0,0,8.5,0Zm0,16.3a7.8,7.8,0,1,1,7.8-7.8h0A7.81,7.81,0,0,1,8.5,16.3Z"/></g></g></g></g></svg>