<svg xmlns="http://www.w3.org/2000/svg" viewBox="0 0 21.5 22.5"><defs><style>.cls-1{fill:#fff;}</style></defs><g id="图层_2" data-name="图层 2"><g id="图层_1-2" data-name="图层 1"><path class="cls-1" d="M19.1,2H17.5a2.67,2.67,0,0,0-2.6-2h-8A2.82,2.82,0,0,0,4.1,2H2.4A2.43,2.43,0,0,0,0,4.4V20.1a2.43,2.43,0,0,0,2.4,2.4H19.1a2.43,2.43,0,0,0,2.4-2.4V4.4A2.43,2.43,0,0,0,19.1,2Zm-1.6.8a2.2,2.2,0,0,0-.1-.8A2,2,0,0,1,17.5,2.8ZM6.8,1.5h8a1.23,1.23,0,0,1,1,.5h-.1a1.14,1.14,0,0,1,.3.8,1.26,1.26,0,0,1-.24.7H15.6a.89.89,0,0,1-.8.5h-8a1.23,1.23,0,0,1-1-.5,1.08,1.08,0,0,1-.3-.7A1.33,1.33,0,0,1,5.8,2,1.23,1.23,0,0,1,6.8,1.5ZM20,20.2a.9.9,0,0,1-.9.9H2.4a.9.9,0,0,1-.9-.9V4.4a.9.9,0,0,1,.9-.9H4.1a2.67,2.67,0,0,0,2.6,2h8a2.68,2.68,0,0,0,2.57-1.9H19.1a.9.9,0,0,1,.9.9Z"/><circle class="cls-1" cx="6.8" cy="8.8" r="1"/><path class="cls-1" d="M16,8H10.8a.74.74,0,0,0-.8.8.79.79,0,0,0,.8.8H16A.8.8,0,0,0,16,8Z"/><path class="cls-1" d="M16,12H10.8a.74.74,0,0,0-.8.8.79.79,0,0,0,.8.8H16A.8.8,0,0,0,16,12Z"/><path class="cls-1" d="M16,16H10.8a.74.74,0,0,0-.8.8.79.79,0,0,0,.8.8H16A.8.8,0,0,0,16,16Z"/><circle class="cls-1" cx="6.8" cy="12.8" r="1"/><circle class="cls-1" cx="6.8" cy="16.8" r="1"/></g></g></svg>