<?xml version="1.0" encoding="utf-8"?>
<!-- Generator: Adobe Illustrator 26.0.0, SVG Export Plug-In . SVG Version: 6.00 Build 0)  -->
<svg version="1.1" id="图层_1" xmlns="http://www.w3.org/2000/svg" xmlns:xlink="http://www.w3.org/1999/xlink" x="0px" y="0px"
	 viewBox="0 0 21.5 22.5" style="enable-background:new 0 0 21.5 22.5;" xml:space="preserve">
<style type="text/css">
	.st0{fill:none;}
</style>
<g id="图层_2_00000057850229484276199380000006028841168150845613_">
	<g id="图层_1-2">
		<path class="st0" d="M14.8,5.5h-8c-1.2,0-2.3-0.8-2.6-2H2.4c-0.5,0-0.9,0.4-0.9,0.9l0,0v15.7c0,0.5,0.4,0.9,0.9,0.9l0,0h16.7
			c0.5,0,0.9-0.4,0.9-0.9l0,0V4.4c0-0.5-0.4-0.9-0.9-0.9l0,0h-1.7C17,4.7,16,5.5,14.8,5.5z"/>
		<path d="M19.1,2h-1.7c0.1,0.2,0.1,0.5,0.1,0.8c0,0.3,0,0.5-0.1,0.8h1.7c0.5,0,0.9,0.4,0.9,0.9l0,0v15.7c0,0.5-0.4,0.9-0.9,0.9l0,0
			H2.4c-0.5,0-0.9-0.4-0.9-0.9l0,0V4.4c0-0.5,0.4-0.9,0.9-0.9l0,0h1.7C4,3.3,4,3,4,2.8C4,2.5,4,2.2,4.1,2H2.4C1.1,2,0,3.1,0,4.4
			v15.7c0,1.3,1.1,2.4,2.4,2.4h16.7c1.3,0,2.4-1.1,2.4-2.4V4.4C21.5,3.1,20.4,2,19.1,2z"/>
		<path d="M6.8,1.5h8c0.4,0,0.8,0.2,1,0.5h1.7c-0.3-1.2-1.4-2-2.6-2h-8C5.5,0,4.5,0.8,4.1,2h1.7C6,1.7,6.4,1.5,6.8,1.5z"/>
		<path d="M14.8,4h-8C6.4,4,6,3.8,5.8,3.5H4.1c0.3,1.2,1.4,2,2.6,2h8c1.2,0,2.3-0.8,2.6-2h-1.7C15.5,3.8,15.1,4,14.8,4z"/>
		<path d="M4.1,3.5h1.7C5.6,3.3,5.5,3,5.5,2.8c0-0.3,0.1-0.5,0.3-0.8H4.1C4,2.2,4,2.5,4,2.8C4,3,4,3.3,4.1,3.5z"/>
		<path d="M16,2.8c0,0.3-0.1,0.5-0.3,0.8h1.7c0.1-0.2,0.1-0.5,0.1-0.8c0-0.3,0-0.5-0.1-0.8h-1.7C15.9,2.2,16,2.5,16,2.8z"/>
		<path d="M6.8,7.8L6.8,7.8c0.6,0,1,0.4,1,1l0,0c0,0.6-0.4,1-1,1l0,0c-0.6,0-1-0.4-1-1l0,0C5.8,8.2,6.2,7.8,6.8,7.8z"/>
		<path d="M10.8,8H16c0.4,0,0.8,0.3,0.8,0.8l0,0c0,0.4-0.3,0.8-0.8,0.8h-5.2c-0.4,0-0.8-0.3-0.8-0.8l0,0C10,8.3,10.3,8,10.8,8z"/>
		<path d="M10.8,12H16c0.4,0,0.8,0.3,0.8,0.8l0,0c0,0.4-0.3,0.8-0.8,0.8h-5.2c-0.4,0-0.8-0.3-0.8-0.8l0,0C10,12.3,10.3,12,10.8,12z"
			/>
		<path d="M10.8,16H16c0.4,0,0.8,0.3,0.8,0.8l0,0c0,0.4-0.3,0.8-0.8,0.8h-5.2c-0.4,0-0.8-0.3-0.8-0.8l0,0C10,16.3,10.3,16,10.8,16z"
			/>
		<path d="M6.8,11.8L6.8,11.8c0.6,0,1,0.4,1,1l0,0c0,0.6-0.4,1-1,1l0,0c-0.6,0-1-0.4-1-1l0,0C5.8,12.2,6.2,11.8,6.8,11.8z"/>
		<path d="M6.8,15.8L6.8,15.8c0.6,0,1,0.4,1,1l0,0c0,0.6-0.4,1-1,1l0,0c-0.6,0-1-0.4-1-1l0,0C5.8,16.2,6.2,15.8,6.8,15.8z"/>
	</g>
</g>
</svg>
