<?xml version="1.0" encoding="utf-8"?>
<!-- Generator: Adobe Illustrator 26.0.0, SVG Export Plug-In . SVG Version: 6.00 Build 0)  -->
<svg version="1.1" id="图层_1" xmlns="http://www.w3.org/2000/svg" xmlns:xlink="http://www.w3.org/1999/xlink" x="0px" y="0px"
	 viewBox="0 0 22.5 22.5" style="enable-background:new 0 0 22.5 22.5;" xml:space="preserve">
<g id="图层_2_00000124157784355429719330000010911669969204327061_">
	<g id="图层_1-2">
		<path d="M20,22.5H2.5C1.1,22.5,0,21.4,0,20V2.5C0,1.1,1.1,0,2.5,0H20c1.4,0,2.5,1.1,2.5,2.5V20C22.5,21.4,21.4,22.5,20,22.5z
			 M2.5,1.5c-0.6,0-1,0.4-1,1V20c0,0.6,0.4,1,1,1H20c0.6,0,1-0.4,1-1V2.5c0-0.6-0.4-1-1-1L2.5,1.5z"/>
		<path d="M6.8,17.5c-1.5,0-2.8-1.2-2.8-2.8S5.2,12,6.8,12s2.8,1.2,2.8,2.8S8.3,17.5,6.8,17.5z M6.8,13.5c-0.7,0-1.2,0.6-1.2,1.2
			S6.1,16,6.8,16S8,15.4,8,14.8S7.4,13.5,6.8,13.5z"/>
		<path d="M13.5,14.5H18c0.4,0,0.8,0.3,0.8,0.8l0,0c0,0.4-0.3,0.8-0.8,0.8h-4.5c-0.4,0-0.8-0.3-0.8-0.8l0,0
			C12.8,14.8,13.1,14.5,13.5,14.5z"/>
		<path d="M13.5,6.5H18c0.4,0,0.8,0.3,0.8,0.8l0,0C18.8,7.7,18.4,8,18,8h-4.5c-0.4,0-0.8-0.3-0.8-0.8l0,0
			C12.8,6.8,13.1,6.5,13.5,6.5z"/>
		<path d="M12,4.1c-0.3-0.3-0.8-0.3-1.1,0L7.1,8L4.7,5.6c-0.3-0.3-0.8-0.3-1.1,0c-0.3,0.3-0.3,0.7,0,1l2.8,2.8
			c0.2,0.2,0.4,0.2,0.6,0.2c0.2,0,0.5,0,0.6-0.2L12,5.2C12.3,4.9,12.3,4.4,12,4.1z"/>
	</g>
</g>
</svg>
