<?xml version="1.0" encoding="utf-8"?>
<!-- Generator: Adobe Illustrator 26.0.0, SVG Export Plug-In . SVG Version: 6.00 Build 0)  -->
<svg version="1.1" id="图层_1" xmlns="http://www.w3.org/2000/svg" xmlns:xlink="http://www.w3.org/1999/xlink" x="0px" y="0px"
	 viewBox="0 0 13.7 16" style="enable-background:new 0 0 13.7 16;" xml:space="preserve">
<g id="图层_2_00000026849787355912391460000013805922523974031285_">
	<g id="图层_1-2">
		<path d="M4.6,1.1h4.6c0.3,0,0.5-0.2,0.6-0.6l0,0C9.7,0.3,9.5,0,9.2,0c0,0,0,0,0,0H4.6C4.2,0,4,0.2,4,0.6l0,0
			C4,0.9,4.2,1.1,4.6,1.1C4.5,1.1,4.5,1.1,4.6,1.1z M3.7,5.9H6v2.3H3.7V5.9z"/>
		<path d="M13,2.3H0.7C0.3,2.3,0,2.6,0,3c0,0,0,0,0,0l0,0v12.3C0,15.7,0.3,16,0.7,16H13c0.4,0,0.7-0.3,0.7-0.7V3
			C13.7,2.6,13.4,2.3,13,2.3C13,2.3,13,2.3,13,2.3z M2.6,5.8c0-0.6,0.4-1,1-1h2.5c0.6,0,1,0.4,1,1v2.5c0,0.6-0.4,1-1,1H3.6
			c-0.6,0-1-0.4-1-1L2.6,5.8L2.6,5.8z M11,12.4H3.2c-0.3,0-0.6-0.3-0.6-0.6c0-0.3,0.3-0.6,0.6-0.6H11c0.3,0,0.6,0.3,0.6,0.6
			C11.6,12.1,11.3,12.4,11,12.4L11,12.4z M11.1,8.8H8.8c-0.3,0-0.6-0.3-0.6-0.6c0-0.3,0.3-0.6,0.6-0.6h2.3c0.3,0,0.6,0.3,0.6,0.6
			S11.4,8.8,11.1,8.8C11.1,8.8,11.1,8.8,11.1,8.8z M11.1,6.7H8.8c-0.3,0-0.6-0.3-0.6-0.6s0.3-0.6,0.6-0.6c0,0,0,0,0,0h2.3
			c0.3,0,0.6,0.3,0.6,0.6C11.6,6.4,11.4,6.7,11.1,6.7z"/>
	</g>
</g>
</svg>
